<?xml version="1.0" ?><svg xmlns="http://www.w3.org/2000/svg" viewBox="0 0 64 64"><defs><style>.cls-1{fill:#fff;}.cls-2{fill:#ec1a23;}.cls-3{fill:#231c4f;}</style></defs><title/><g id="Thailand"><path class="cls-1" d="M56,32a24.05,24.05,0,0,1-6.12,16,24,24,0,0,1-40.5-8,24,24,0,0,1,4.74-24,24,24,0,0,1,40.5,8A23.59,23.59,0,0,1,56,32Z"/><path class="cls-2" d="M49.88,48a24,24,0,0,1-35.76,0Z"/><path class="cls-1" d="M54.62,40a23.71,23.71,0,0,1-4.74,8H14.12a23.71,23.71,0,0,1-4.74-8Z"/><path class="cls-1" d="M54.62,24H9.38a23.71,23.71,0,0,1,4.74-8H49.88A23.71,23.71,0,0,1,54.62,24Z"/><path class="cls-3" d="M56,32a23.59,23.59,0,0,1-1.38,8H9.38a23.88,23.88,0,0,1,0-16H54.62A23.59,23.59,0,0,1,56,32Z"/><path class="cls-2" d="M49.88,16H14.12a24,24,0,0,1,35.76,0Z"/></g></svg>